name analog
datacolumns 19
datarows 83
range 0.255 0.29600000000000004
endheader
time	ground_force_vx	ground_force_vy	ground_force_vz	ground_force_px	ground_force_py	ground_force_pz	l_ground_force_vx	l_ground_force_vy	l_ground_force_vz	l_ground_force_px	l_ground_force_py	l_ground_force_pz	ground_torque_x	ground_torque_y	ground_torque_z	l_ground_torque_x	l_ground_torque_y	l_ground_torque_z
0.255	-0.0	-0.0	-0.0	-9.41856861114502	9.46290683746338	-871.1033935546875	-0.0	-0.0	-0.0	-0.0	-0.0	-0.0	-0.0	-0.0	-0.0	-0.0	-0.0	-0.0
0.2555	-0.0	-0.0	-0.0	-7.924911022186279	10.606517791748049	-872.0599975585938	-0.0	-0.0	-0.0	-0.0	-0.0	-0.0	-0.0	-0.0	-0.0	-0.0	-0.0	-0.0
0.256	-0.0	-0.0	-0.0	-5.634777069091797	11.705086708068848	-871.48583984375	-0.0	-0.0	-0.0	-0.0	-0.0	-0.0	-0.0	-0.0	-0.0	-0.0	-0.0	-0.0
0.2565	-0.0	-0.0	-0.0	-4.790523529052734	12.752745628356934	-869.6915893554688	-0.0	-0.0	-0.0	-0.0	-0.0	-0.0	-0.0	-0.0	-0.0	-0.0	-0.0	-0.0
0.257	-0.0	-0.0	-0.0	-3.3007888793945312	13.478889465332031	-869.6117553710938	-0.0	-0.0	-0.0	-0.0	-0.0	-0.0	-0.0	-0.0	-0.0	-0.0	-0.0	-0.0
0.2575	-0.0	-0.0	-0.0	-1.8461660146713257	14.034634590148926	-867.8722534179688	-0.0	-0.0	-0.0	-0.0	-0.0	-0.0	-0.0	-0.0	-0.0	-0.0	-0.0	-0.0
0.258	-0.0	-0.0	-0.0	-0.4393752217292785	14.726530075073242	-867.6573486328125	-0.0	-0.0	-0.0	-0.0	-0.0	-0.0	-0.0	-0.0	-0.0	-0.0	-0.0	-0.0
0.2585	-0.0	-0.0	-0.0	-0.5352630615234375	14.830436706542969	-866.1608276367188	-0.0	-0.0	-0.0	-0.0	-0.0	-0.0	-0.0	-0.0	-0.0	-0.0	-0.0	-0.0
0.259	-0.0	-0.0	-0.0	-1.385947823524475	13.843867301940918	-862.93212890625	-0.0	-0.0	-0.0	-0.0	-0.0	-0.0	-0.0	-0.0	-0.0	-0.0	-0.0	-0.0
0.2595	-0.0	-0.0	-0.0	-2.8796629905700684	11.26565647125244	-860.86376953125	-0.0	-0.0	-0.0	-0.0	-0.0	-0.0	-0.0	-0.0	-0.0	-0.0	-0.0	-0.0
0.26	-0.0	-0.0	-0.0	-3.4852869510650635	8.85329532623291	-860.6754760742188	-0.0	-0.0	-0.0	-0.0	-0.0	-0.0	-0.0	-0.0	-0.0	-0.0	-0.0	-0.0
0.2605	-0.0	-0.0	-0.0	-4.240469932556152	6.637247085571289	-861.3823852539062	-0.0	-0.0	-0.0	-0.0	-0.0	-0.0	-0.0	-0.0	-0.0	-0.0	-0.0	-0.0
0.261	-0.0	-0.0	-0.0	-3.6935548782348633	4.545650482177734	-860.8646240234375	-0.0	-0.0	-0.0	-0.0	-0.0	-0.0	-0.0	-0.0	-0.0	-0.0	-0.0	-0.0
0.2615	-0.0	-0.0	-0.0	-2.8603694438934326	2.988682508468628	-862.0899658203125	-0.0	-0.0	-0.0	-0.0	-0.0	-0.0	-0.0	-0.0	-0.0	-0.0	-0.0	-0.0
0.262	-0.0	-0.0	-0.0	-1.5947957038879397	1.1223677396774292	-863.1935424804688	-0.0	-0.0	-0.0	-0.0	-0.0	-0.0	-0.0	-0.0	-0.0	-0.0	-0.0	-0.0
0.2625	-0.0	-0.0	-0.0	-0.3621842265129089	-0.5401197671890259	-864.6055908203125	-0.0	-0.0	-0.0	-0.0	-0.0	-0.0	-0.0	-0.0	-0.0	-0.0	-0.0	-0.0
0.263	-0.0	-0.0	-0.0	0.4247928261756897	-2.815382480621338	-866.1840209960938	-0.0	-0.0	-0.0	-0.0	-0.0	-0.0	-0.0	-0.0	-0.0	-0.0	-0.0	-0.0
0.2635	-0.0	-0.0	-0.0	1.1176574230194092	-4.241265296936035	-867.72314453125	-0.0	-0.0	-0.0	-0.0	-0.0	-0.0	-0.0	-0.0	-0.0	-0.0	-0.0	-0.0
0.264	-0.0	-0.0	-0.0	1.484217405319214	-5.127444744110107	-867.9299926757812	-0.0	-0.0	-0.0	-0.0	-0.0	-0.0	-0.0	-0.0	-0.0	-0.0	-0.0	-0.0
0.2645	-0.0	-0.0	-0.0	2.6763153076171875	-5.6389994621276855	-868.1163330078125	-0.0	-0.0	-0.0	-0.0	-0.0	-0.0	-0.0	-0.0	-0.0	-0.0	-0.0	-0.0
0.265	-0.0	-0.0	-0.0	3.56842041015625	-6.018603801727295	-867.0932006835938	-0.0	-0.0	-0.0	-0.0	-0.0	-0.0	-0.0	-0.0	-0.0	-0.0	-0.0	-0.0
0.2655	-0.0	-0.0	-0.0	4.986882209777832	-5.6620049476623535	-865.6264038085938	-0.0	-0.0	-0.0	-0.0	-0.0	-0.0	-0.0	-0.0	-0.0	-0.0	-0.0	-0.0
0.266	-0.0	-0.0	-0.0	5.488605499267578	-6.285850524902344	-865.2908935546875	-0.0	-0.0	-0.0	-0.0	-0.0	-0.0	-0.0	-0.0	-0.0	-0.0	-0.0	-0.0
0.2665	-0.0	-0.0	-0.0	6.011300563812256	-6.510679244995117	-863.4755249023438	-0.0	-0.0	-0.0	-0.0	-0.0	-0.0	-0.0	-0.0	-0.0	-0.0	-0.0	-0.0
0.267	-0.0	-0.0	-0.0	5.4458513259887695	-6.859034061431885	-859.6400146484375	-0.0	-0.0	-0.0	-0.0	-0.0	-0.0	-0.0	-0.0	-0.0	-0.0	-0.0	-0.0
0.2675	-0.0	-0.0	-0.0	6.562783241271973	-6.766169548034668	-855.217529296875	-0.0	-0.0	-0.0	-0.0	-0.0	-0.0	-0.0	-0.0	-0.0	-0.0	-0.0	-0.0
0.268	-0.0	-0.0	-0.0	8.532621383666992	-6.530646324157715	-849.4124755859375	-0.0	-0.0	-0.0	-0.0	-0.0	-0.0	-0.0	-0.0	-0.0	-0.0	-0.0	-0.0
0.2685	-0.0	-0.0	-0.0	9.631152153015137	-5.508185386657715	-842.4752807617188	-0.0	-0.0	-0.0	-0.0	-0.0	-0.0	-0.0	-0.0	-0.0	-0.0	-0.0	-0.0
0.269	-0.0	-0.0	-0.0	9.370532989501951	-4.7136311531066895	-834.380859375	-0.0	-0.0	-0.0	-0.0	-0.0	-0.0	-0.0	-0.0	-0.0	-0.0	-0.0	-0.0
0.2695	-0.0	-0.0	-0.0	7.265743732452393	-3.604872941970825	-825.1984252929688	-0.0	-0.0	-0.0	-0.0	-0.0	-0.0	-0.0	-0.0	-0.0	-0.0	-0.0	-0.0
0.27	-0.0	-0.0	-0.0	5.2203755378723145	-3.156332492828369	-817.7943115234375	-0.0	-0.0	-0.0	-0.0	-0.0	-0.0	-0.0	-0.0	-0.0	-0.0	-0.0	-0.0
0.2705	-0.0	-0.0	-0.0	2.618358612060547	-3.2978248596191406	-812.8142700195312	-0.0	-0.0	-0.0	-0.0	-0.0	-0.0	-0.0	-0.0	-0.0	-0.0	-0.0	-0.0
0.271	-0.0	-0.0	-0.0	0.9870327711105348	-4.099998474121094	-809.8529052734375	-0.0	-0.0	-0.0	-0.0	-0.0	-0.0	-0.0	-0.0	-0.0	-0.0	-0.0	-0.0
0.2715	-0.0	-0.0	-0.0	-0.8406965732574463	-5.747551441192627	-808.6323852539062	-0.0	-0.0	-0.0	-0.0	-0.0	-0.0	-0.0	-0.0	-0.0	-0.0	-0.0	-0.0
0.272	-0.0	-0.0	-0.0	-1.8300988674163816	-7.229820251464844	-806.814208984375	-0.0	-0.0	-0.0	-0.0	-0.0	-0.0	-0.0	-0.0	-0.0	-0.0	-0.0	-0.0
0.2725	-0.0	-0.0	-0.0	-2.3243329524993896	-8.284272193908691	-808.4385375976562	-0.0	-0.0	-0.0	-0.0	-0.0	-0.0	-0.0	-0.0	-0.0	-0.0	-0.0	-0.0
0.273	-0.0	-0.0	-0.0	-3.392275810241699	-8.915314674377441	-810.013671875	-0.0	-0.0	-0.0	-0.0	-0.0	-0.0	-0.0	-0.0	-0.0	-0.0	-0.0	-0.0
0.2735	-0.0	-0.0	-0.0	-4.105805397033691	-9.09342098236084	-813.7181396484375	-0.0	-0.0	-0.0	-0.0	-0.0	-0.0	-0.0	-0.0	-0.0	-0.0	-0.0	-0.0
0.274	-0.0	-0.0	-0.0	-5.489424705505371	-9.093284606933594	-816.748291015625	-0.0	-0.0	-0.0	-0.0	-0.0	-0.0	-0.0	-0.0	-0.0	-0.0	-0.0	-0.0
0.2745	-0.0	-0.0	-0.0	-6.692619323730469	-8.554689407348633	-820.24951171875	-0.0	-0.0	-0.0	-0.0	-0.0	-0.0	-0.0	-0.0	-0.0	-0.0	-0.0	-0.0
0.275	-0.0	-0.0	-0.0	-8.161922454833984	-7.433168411254883	-823.0891723632812	-0.0	-0.0	-0.0	-0.0	-0.0	-0.0	-0.0	-0.0	-0.0	-0.0	-0.0	-0.0
0.2755	-0.0	-0.0	-0.0	-9.908531188964844	-7.039762020111084	-824.3341674804688	-0.0	-0.0	-0.0	-0.0	-0.0	-0.0	-0.0	-0.0	-0.0	-0.0	-0.0	-0.0
0.276	-0.0	-0.0	-0.0	-11.68657684326172	-6.462646961212158	-827.853759765625	-0.0	-0.0	-0.0	-0.0	-0.0	-0.0	-0.0	-0.0	-0.0	-0.0	-0.0	-0.0
0.2765	-0.0	-0.0	-0.0	-12.937990188598633	-4.8081135749816895	-829.6099243164062	-0.0	-0.0	-0.0	-0.0	-0.0	-0.0	-0.0	-0.0	-0.0	-0.0	-0.0	-0.0
0.277	-0.0	-0.0	-0.0	-13.966381072998049	-3.34403395652771	-831.577392578125	-0.0	-0.0	-0.0	-0.0	-0.0	-0.0	-0.0	-0.0	-0.0	-0.0	-0.0	-0.0
0.2775	-0.0	-0.0	-0.0	-15.301015853881836	-0.8425018787384033	-833.3336791992188	-0.0	-0.0	-0.0	-0.0	-0.0	-0.0	-0.0	-0.0	-0.0	-0.0	-0.0	-0.0
0.278	-0.0	-0.0	-0.0	-16.102094650268555	1.6059587001800537	-835.260986328125	-0.0	-0.0	-0.0	-0.0	-0.0	-0.0	-0.0	-0.0	-0.0	-0.0	-0.0	-0.0
0.2785	-0.0	-0.0	-0.0	-17.12841796875	3.567821502685547	-838.2713012695312	-0.0	-0.0	-0.0	-0.0	-0.0	-0.0	-0.0	-0.0	-0.0	-0.0	-0.0	-0.0
0.279	-0.0	-0.0	-0.0	-17.88595962524414	5.035618782043457	-837.9224243164062	-0.0	-0.0	-0.0	-0.0	-0.0	-0.0	-0.0	-0.0	-0.0	-0.0	-0.0	-0.0
0.2795	-0.0	-0.0	-0.0	-19.35795783996582	7.041301727294922	-841.6292114257812	-0.0	-0.0	-0.0	-0.0	-0.0	-0.0	-0.0	-0.0	-0.0	-0.0	-0.0	-0.0
0.28	-0.0	-0.0	-0.0	-20.56312561035156	8.824116706848145	-843.3928833007812	-0.0	-0.0	-0.0	-0.0	-0.0	-0.0	-0.0	-0.0	-0.0	-0.0	-0.0	-0.0
0.2805	-0.0	-0.0	-0.0	-21.053680419921875	10.918509483337402	-844.9823608398438	-0.0	-0.0	-0.0	-0.0	-0.0	-0.0	-0.0	-0.0	-0.0	-0.0	-0.0	-0.0
0.281	-0.0	-0.0	-0.0	-21.053598403930664	12.299912452697754	-850.810791015625	-0.0	-0.0	-0.0	-0.0	-0.0	-0.0	-0.0	-0.0	-0.0	-0.0	-0.0	-0.0
0.28150000000000003	-0.0	-0.0	-0.0	-20.964231491088867	13.77052879333496	-851.8662109375	-0.0	-0.0	-0.0	-0.0	-0.0	-0.0	-0.0	-0.0	-0.0	-0.0	-0.0	-0.0
0.28200000000000003	-0.0	-0.0	-0.0	-20.830841064453125	14.394000053405762	-855.9323120117188	-0.0	-0.0	-0.0	-0.0	-0.0	-0.0	-0.0	-0.0	-0.0	-0.0	-0.0	-0.0
0.28250000000000003	-0.0	-0.0	-0.0	-20.4746036529541	14.79617404937744	-858.5804443359375	-0.0	-0.0	-0.0	-0.0	-0.0	-0.0	-0.0	-0.0	-0.0	-0.0	-0.0	-0.0
0.28300000000000003	-0.0	-0.0	-0.0	-20.117992401123047	15.50800895690918	-862.2847900390625	-0.0	-0.0	-0.0	-0.0	-0.0	-0.0	-0.0	-0.0	-0.0	-0.0	-0.0	-0.0
0.28350000000000003	-0.0	-0.0	-0.0	-20.295799255371094	15.687767028808594	-864.9312133789062	-0.0	-0.0	-0.0	-0.0	-0.0	-0.0	-0.0	-0.0	-0.0	-0.0	-0.0	-0.0
0.28400000000000003	-0.0	-0.0	-0.0	-20.16157531738281	15.508689880371094	-867.9454956054688	-0.0	-0.0	-0.0	-0.0	-0.0	-0.0	-0.0	-0.0	-0.0	-0.0	-0.0	-0.0
0.28450000000000003	-0.0	-0.0	-0.0	-19.71773910522461	14.752741813659668	-870.4010009765625	-0.0	-0.0	-0.0	-0.0	-0.0	-0.0	-0.0	-0.0	-0.0	-0.0	-0.0	-0.0
0.28500000000000003	-0.0	-0.0	-0.0	-19.49186515808105	13.462472915649414	-873.2398681640625	-0.0	-0.0	-0.0	-0.0	-0.0	-0.0	-0.0	-0.0	-0.0	-0.0	-0.0	-0.0
0.28550000000000003	-0.0	-0.0	-0.0	-19.807565689086918	12.25613784790039	-875.3424072265625	-0.0	-0.0	-0.0	-0.0	-0.0	-0.0	-0.0	-0.0	-0.0	-0.0	-0.0	-0.0
0.28600000000000003	-0.0	-0.0	-0.0	-20.0269832611084	10.877009391784668	-878.860595703125	-0.0	-0.0	-0.0	-0.0	-0.0	-0.0	-0.0	-0.0	-0.0	-0.0	-0.0	-0.0
0.28650000000000003	-0.0	-0.0	-0.0	-19.543926239013672	9.140128135681152	-881.37744140625	-0.0	-0.0	-0.0	-0.0	-0.0	-0.0	-0.0	-0.0	-0.0	-0.0	-0.0	-0.0
0.28700000000000003	-0.0	-0.0	-0.0	-18.37922477722168	7.705134391784668	-885.6023559570312	-0.0	-0.0	-0.0	-0.0	-0.0	-0.0	-0.0	-0.0	-0.0	-0.0	-0.0	-0.0
0.28750000000000003	-0.0	-0.0	-0.0	-16.819175720214844	6.280701637268066	-888.946044921875	-0.0	-0.0	-0.0	-0.0	-0.0	-0.0	-0.0	-0.0	-0.0	-0.0	-0.0	-0.0
0.28800000000000003	-0.0	-0.0	-0.0	-15.25069522857666	6.013078689575195	-892.6580200195312	-0.0	-0.0	-0.0	-0.0	-0.0	-0.0	-0.0	-0.0	-0.0	-0.0	-0.0	-0.0
0.28850000000000003	-0.0	-0.0	-0.0	-14.502469062805176	6.001335620880127	-895.483154296875	-0.0	-0.0	-0.0	-0.0	-0.0	-0.0	-0.0	-0.0	-0.0	-0.0	-0.0	-0.0
0.28900000000000003	-0.0	-0.0	-0.0	-13.962665557861328	6.24156665802002	-896.7142333984375	-0.0	-0.0	-0.0	-0.0	-0.0	-0.0	-0.0	-0.0	-0.0	-0.0	-0.0	-0.0
0.28950000000000004	-0.0	-0.0	-0.0	-14.413986206054688	5.426582336425781	-895.8255004882812	-0.0	-0.0	-0.0	-0.0	-0.0	-0.0	-0.0	-0.0	-0.0	-0.0	-0.0	-0.0
0.29000000000000004	-0.0	-0.0	-0.0	-15.571330070495604	4.637509346008301	-896.927490234375	-0.0	-0.0	-0.0	-0.0	-0.0	-0.0	-0.0	-0.0	-0.0	-0.0	-0.0	-0.0
0.29050000000000004	-0.0	-0.0	-0.0	-16.90683364868164	3.2633495330810547	-895.5048828125	-0.0	-0.0	-0.0	-0.0	-0.0	-0.0	-0.0	-0.0	-0.0	-0.0	-0.0	-0.0
0.29100000000000004	-0.0	-0.0	-0.0	-18.158897399902344	1.466098070144653	-895.3111572265625	-0.0	-0.0	-0.0	-0.0	-0.0	-0.0	-0.0	-0.0	-0.0	-0.0	-0.0	-0.0
0.29150000000000004	-0.0	-0.0	-0.0	-19.392173767089844	0.3628652095794678	-895.7020263671875	-0.0	-0.0	-0.0	-0.0	-0.0	-0.0	-0.0	-0.0	-0.0	-0.0	-0.0	-0.0
0.29200000000000004	-0.0	-0.0	-0.0	-20.154916763305664	-0.7097170352935791	-894.5784301757812	-0.0	-0.0	-0.0	-0.0	-0.0	-0.0	-0.0	-0.0	-0.0	-0.0	-0.0	-0.0
0.29250000000000004	-0.0	-0.0	-0.0	-20.832395553588867	-0.4063057899475097	-893.2058715820312	-0.0	-0.0	-0.0	-0.0	-0.0	-0.0	-0.0	-0.0	-0.0	-0.0	-0.0	-0.0
0.29300000000000004	-0.0	-0.0	-0.0	-21.00002861022949	-1.0695648193359375	-893.1634521484375	-0.0	-0.0	-0.0	-0.0	-0.0	-0.0	-0.0	-0.0	-0.0	-0.0	-0.0	-0.0
0.29350000000000004	-0.0	-0.0	-0.0	-21.94955825805664	-2.1353600025177	-892.8388671875	-0.0	-0.0	-0.0	-0.0	-0.0	-0.0	-0.0	-0.0	-0.0	-0.0	-0.0	-0.0
0.29400000000000004	-0.0	-0.0	-0.0	-22.55853271484375	-3.6504414081573486	-891.6259765625	-0.0	-0.0	-0.0	-0.0	-0.0	-0.0	-0.0	-0.0	-0.0	-0.0	-0.0	-0.0
0.29450000000000004	-0.0	-0.0	-0.0	-23.05888557434082	-5.11484956741333	-892.2688598632812	-0.0	-0.0	-0.0	-0.0	-0.0	-0.0	-0.0	-0.0	-0.0	-0.0	-0.0	-0.0
0.29500000000000004	-0.0	-0.0	-0.0	-23.109739303588867	-7.262021541595459	-892.350830078125	-0.0	-0.0	-0.0	-0.0	-0.0	-0.0	-0.0	-0.0	-0.0	-0.0	-0.0	-0.0
0.29550000000000004	-0.0	-0.0	-0.0	-23.41558265686035	-10.78042984008789	-892.7871704101562	-0.0	-0.0	-0.0	-0.0	-0.0	-0.0	-0.0	-0.0	-0.0	-0.0	-0.0	-0.0
0.29600000000000004	-0.0	-0.0	-0.0	-22.12871360778809	-14.655196189880373	-893.7129516601562	-0.0	-0.0	-0.0	-0.0	-0.0	-0.0	-0.0	-0.0	-0.0	-0.0	-0.0	-0.0
